<svg width="37" height="37" viewBox="0 0 37 37" fill="none" xmlns="http://www.w3.org/2000/svg">
<path d="M34.5181 9.66642C32.8638 6.83196 30.6198 4.58791 27.7856 2.93376C24.951 1.27954 21.8564 0.452637 18.4997 0.452637C15.1434 0.452637 12.0478 1.27979 9.21378 2.93376C6.37932 4.58782 4.13544 6.83196 2.48113 9.66642C0.827071 12.5008 0 15.596 0 18.9518C0 22.983 1.17611 26.6079 3.52891 29.8275C5.88146 33.0474 8.9206 35.2754 12.6461 36.5118C13.0797 36.5923 13.4008 36.5357 13.6095 36.3434C13.8183 36.1509 13.9226 35.9098 13.9226 35.6211C13.9226 35.5729 13.9185 35.1395 13.9104 34.3204C13.9022 33.5012 13.8983 32.7866 13.8983 32.1769L13.3442 32.2727C12.991 32.3374 12.5454 32.3648 12.0073 32.3571C11.4696 32.3496 10.9113 32.2932 10.3333 32.1884C9.75501 32.0846 9.21716 31.8437 8.7193 31.4663C8.22169 31.0889 7.86843 30.5949 7.65962 29.9851L7.41875 29.4308C7.25819 29.0618 7.00542 28.6518 6.6601 28.2025C6.31478 27.7527 5.96557 27.4478 5.61232 27.2873L5.44367 27.1665C5.33129 27.0863 5.22701 26.9895 5.13057 26.8772C5.03422 26.7649 4.96209 26.6525 4.91391 26.54C4.86565 26.4274 4.90564 26.335 5.03431 26.2625C5.16297 26.19 5.39549 26.1549 5.73288 26.1549L6.21446 26.2268C6.53566 26.2912 6.93295 26.4835 7.40685 26.8048C7.8805 27.1259 8.26986 27.5434 8.57503 28.057C8.94456 28.7156 9.38978 29.2175 9.91194 29.5628C10.4337 29.9081 10.9597 30.0805 11.4896 30.0805C12.0194 30.0805 12.477 30.0403 12.8626 29.9604C13.2477 29.8801 13.6091 29.7594 13.9465 29.5989C14.091 28.5225 14.4845 27.6956 15.1266 27.1176C14.2114 27.0214 13.3885 26.8765 12.6576 26.6839C11.9272 26.4911 11.1723 26.1781 10.3936 25.7441C9.61445 25.3107 8.9681 24.7725 8.45438 24.1304C7.94057 23.488 7.51889 22.6447 7.18994 21.6011C6.86081 20.5571 6.69621 19.3528 6.69621 17.9879C6.69621 16.0445 7.33067 14.3907 8.59932 13.0256C8.00503 11.5645 8.06113 9.92653 8.76781 8.11192C9.23353 7.96723 9.92417 8.07581 10.8394 8.437C11.7548 8.79835 12.425 9.1079 12.8508 9.36455C13.2765 9.62112 13.6176 9.83854 13.8746 10.0149C15.3683 9.59749 16.9099 9.38876 18.4995 9.38876C20.0892 9.38876 21.6311 9.59749 23.1249 10.0149L24.0402 9.43702C24.6662 9.05146 25.4053 8.69812 26.2559 8.37692C27.107 8.0559 27.7579 7.96748 28.2077 8.11217C28.9301 9.92687 28.9945 11.5647 28.4 13.0258C29.6686 14.3909 30.3033 16.0452 30.3033 17.9882C30.3033 19.3531 30.1381 20.5612 29.8095 21.6132C29.4804 22.6653 29.0551 23.5079 28.5334 24.1425C28.0111 24.777 27.3606 25.311 26.5818 25.7443C25.803 26.178 25.0478 26.491 24.3174 26.6838C23.5866 26.8767 22.7637 27.0217 21.8485 27.118C22.6832 27.8404 23.1007 28.9806 23.1007 30.5383V35.6204C23.1007 35.9091 23.2011 36.1502 23.4021 36.3428C23.6028 36.535 23.9197 36.5917 24.3534 36.5111C28.0794 35.2748 31.1185 33.0467 33.471 29.8269C35.8232 26.6072 36.9997 22.9823 36.9997 18.9512C36.9989 15.5957 36.1714 12.5008 34.5181 9.66642Z" fill="#E17055"/>
</svg>
