<svg width="162" height="163" viewBox="0 0 162 163" fill="none" xmlns="http://www.w3.org/2000/svg">
<circle cx="80.5803" cy="81.4922" r="79.5803" fill="#E17055" stroke="#E17055" stroke-width="2"/>
<circle cx="80.0207" cy="80.9326" r="73.3057" fill="white"/>
<path d="M70.2059 80.6468V129.265C70.2059 130.438 69.7399 131.563 68.9104 132.392C68.0809 133.222 66.9559 133.688 65.7829 133.688H39.1916C38.0185 133.688 36.8935 133.222 36.064 132.392C35.2346 131.563 34.7686 130.438 34.7686 129.265V80.66C34.7692 80.5295 34.781 80.3993 34.8039 80.2708L41.496 41.5914L42.27 37.1153H63.1158L63.8146 41.3879L70.1749 80.2796C70.1962 80.4008 70.2066 80.5237 70.2059 80.6468Z" fill="#FF4A73"/>
<path d="M48.9046 37.1153L48.1305 41.5914L48.0377 42.131L41.4385 80.2708C41.4155 80.3993 41.4037 80.5295 41.4031 80.66V129.265C41.4031 130.438 41.8691 131.563 42.6986 132.392C43.5281 133.222 44.6531 133.688 45.8261 133.688H39.1916C38.0185 133.688 36.8935 133.222 36.064 132.392C35.2346 131.563 34.7686 130.438 34.7686 129.265V80.66C34.7692 80.5295 34.781 80.3993 34.8039 80.2708L41.496 41.5914L42.27 37.1153H48.9046Z" fill="#F973A3"/>
<path d="M70.2059 80.6468V129.265C70.2059 130.438 69.7399 131.563 68.9104 132.392C68.0809 133.222 66.9559 133.688 65.7828 133.688H59.1483C60.3214 133.688 61.4464 133.222 62.2758 132.392C63.1053 131.563 63.5713 130.438 63.5713 129.265V80.6468C63.572 80.5237 63.5616 80.4008 63.5404 80.2796L57.2995 42.131L57.18 41.3879L56.4812 37.1153H63.1158L63.8146 41.3879L70.1749 80.2796C70.1962 80.4008 70.2066 80.5237 70.2059 80.6468Z" fill="#EA2A6A"/>
<path d="M61.3635 27.3859H43.6113C41.1685 27.3859 39.1882 29.3662 39.1882 31.809V37.7062C39.1882 40.149 41.1685 42.1292 43.6113 42.1292H61.3635C63.8063 42.1292 65.7866 40.149 65.7866 37.7062V31.809C65.7866 29.3662 63.8063 27.3859 61.3635 27.3859Z" fill="#87828E"/>
<path d="M50.2448 42.131H43.6103C42.4372 42.131 41.3122 41.665 40.4827 40.8355C39.6533 40.006 39.1873 38.881 39.1873 37.7079V31.8076C39.1873 30.6346 39.6533 29.5095 40.4827 28.6801C41.3122 27.8506 42.4372 27.3846 43.6103 27.3846H50.2448C49.0718 27.3846 47.9468 27.8506 47.1173 28.6801C46.2878 29.5095 45.8218 30.6346 45.8218 31.8076V37.7079C45.8218 38.881 46.2878 40.006 47.1173 40.8355C47.9468 41.665 49.0718 42.131 50.2448 42.131Z" fill="#A4A4A5"/>
<path d="M65.7865 31.8076V37.7079C65.7865 38.881 65.3205 40.006 64.491 40.8355C63.6615 41.665 62.5365 42.131 61.3634 42.131H54.7289C55.9019 42.131 57.027 41.665 57.8564 40.8355C58.6859 40.006 59.1519 38.881 59.1519 37.7079V31.8076C59.1519 30.6346 58.6859 29.5095 57.8564 28.6801C57.027 27.8506 55.9019 27.3846 54.7289 27.3846H61.3634C62.5365 27.3846 63.6615 27.8506 64.491 28.6801C65.3205 29.5095 65.7865 30.6346 65.7865 31.8076Z" fill="#796E84"/>
<path d="M70.2059 89.6786H34.7686V114.005H70.2059V89.6786Z" fill="#F9D335"/>
<path d="M41.4031 89.6786H34.7686V114.005H41.4031V89.6786Z" fill="#F9E27D"/>
<path d="M70.206 89.6786H63.5714V114.005H70.206V89.6786Z" fill="#F2C300"/>
<path d="M103.511 133.688C117.478 133.688 128.8 124.131 128.8 112.343C128.8 100.554 117.478 90.9975 103.511 90.9975C89.5435 90.9975 78.2209 100.554 78.2209 112.343C78.2209 124.131 89.5435 133.688 103.511 133.688Z" fill="#FF4A73"/>
<path d="M106.828 133.502C105.727 133.627 104.619 133.689 103.511 133.688C89.5427 133.688 78.2197 124.13 78.2197 112.342C78.2197 100.555 89.5427 90.9966 103.511 90.9966C104.619 90.9957 105.727 91.0577 106.828 91.1824C94.4257 92.5491 84.8543 101.506 84.8543 112.342C84.8543 123.179 94.4257 132.135 106.828 133.502Z" fill="#F973A3"/>
<path d="M128.801 112.342C128.801 124.13 117.478 133.688 103.511 133.688C102.402 133.689 101.295 133.627 100.193 133.502C112.595 132.135 122.167 123.179 122.167 112.342C122.167 101.506 112.595 92.5491 100.193 91.1824C101.295 91.0577 102.402 90.9957 103.511 90.9966C117.478 90.9966 128.801 100.555 128.801 112.342Z" fill="#EA2A6A"/>
<path d="M65.7224 42.0898C66.3026 41.517 66.7633 40.8347 67.078 40.0825C67.3927 39.3304 67.5551 38.5233 67.5557 37.7079V31.8076C67.554 30.1659 66.901 28.5919 65.7401 27.431C64.5793 26.2701 63.0052 25.6171 61.3635 25.6154H43.6103C41.9686 25.6171 40.3946 26.2701 39.2337 27.431C38.0728 28.5919 37.4198 30.1659 37.4181 31.8076V37.7079C37.4178 38.5969 37.6092 39.4755 37.9793 40.2839C38.3493 41.0922 38.8893 41.8112 39.5624 42.3919C31.8429 87.0088 32.9995 77.2069 32.9995 89.6786V129.265C33.0012 130.906 33.6542 132.48 34.8151 133.641C35.976 134.802 37.55 135.455 39.1917 135.457H65.783C67.4247 135.455 68.9987 134.802 70.1596 133.641C71.3205 132.48 71.9735 130.906 71.9752 129.265V89.6786C71.9752 76.7863 73.3123 88.5007 65.7224 42.0898ZM40.9565 31.8076C40.9572 31.104 41.237 30.4294 41.7346 29.9319C42.2321 29.4343 42.9067 29.1545 43.6103 29.1538H61.3635C62.0671 29.1545 62.7417 29.4343 63.2393 29.9319C63.7368 30.4294 64.0166 31.104 64.0173 31.8076V37.7079C64.0157 38.4113 63.7356 39.0853 63.2382 39.5827C62.7409 40.08 62.0668 40.3601 61.3635 40.3618C41.8831 40.3618 43.2543 40.5219 42.3347 40.0336C41.9172 39.8055 41.5687 39.4692 41.3261 39.06C41.0834 38.6508 40.9554 38.1837 40.9556 37.7079L40.9565 31.8076ZM42.8991 43.8591C43.3414 43.9104 61.5303 43.9621 62.4184 43.8148C69.6403 87.9735 68.4368 77.486 68.4368 87.9125H36.5379C36.5379 77.5064 35.2676 87.9814 42.8991 43.8591ZM68.4368 112.236H36.5379V91.4478H68.4368V112.236ZM65.783 131.919H39.1917C38.4881 131.918 37.8136 131.638 37.3161 131.14C36.8186 130.643 36.5387 129.968 36.5379 129.265V115.774H68.4368V129.265C68.436 129.968 68.1561 130.643 67.6586 131.14C67.1611 131.638 66.4866 131.918 65.783 131.919Z" fill="white"/>
<path d="M58.4517 62.2523C58.5209 62.6646 58.7339 63.0391 59.0529 63.3093C59.3719 63.5796 59.7763 63.7282 60.1944 63.7287C60.2931 63.7284 60.3916 63.7202 60.489 63.7039C60.9517 63.6262 61.3646 63.368 61.6369 62.986C61.9092 62.6039 62.0186 62.1293 61.9411 61.6666L59.8945 49.4533C59.8565 49.2238 59.7736 49.0041 59.6506 48.8067C59.5275 48.6093 59.3668 48.4381 59.1775 48.3029C58.9882 48.1677 58.7742 48.0711 58.5475 48.0187C58.3209 47.9663 58.0861 47.9592 57.8567 47.9976C57.6273 48.036 57.4077 48.1193 57.2106 48.2427C57.0134 48.3661 56.8425 48.5272 56.7076 48.7167C56.5727 48.9062 56.4766 49.1205 56.4246 49.3472C56.3726 49.574 56.3659 49.8087 56.4047 50.038L58.4517 62.2523Z" fill="white"/>
<path d="M61.0002 66.758C60.5375 66.8356 60.1246 67.0939 59.8523 67.4759C59.58 67.858 59.4706 68.3325 59.5481 68.7952L59.699 69.6971C59.768 70.1096 59.9809 70.4843 60.2999 70.7547C60.6189 71.0252 61.0234 71.1738 61.4416 71.1744C61.5404 71.1742 61.6389 71.1659 61.7362 71.1496C62.199 71.0721 62.612 70.8139 62.8844 70.4318C63.1568 70.0498 63.2663 69.5751 63.1887 69.1124L63.0375 68.2105C62.9599 67.7477 62.7017 67.3347 62.3197 67.0623C61.9376 66.7899 61.463 66.6804 61.0002 66.758Z" fill="white"/>
<path d="M105.28 89.2827V75.9659C105.28 75.4966 105.093 75.0466 104.761 74.7148C104.43 74.383 103.98 74.1966 103.51 74.1966C103.041 74.1966 102.591 74.383 102.259 74.7148C101.928 75.0466 101.741 75.4966 101.741 75.9659V89.2827C87.6433 90.0647 76.4517 100.105 76.4517 112.343C76.4517 125.088 88.5902 135.457 103.51 135.457C118.431 135.457 130.569 125.088 130.569 112.343C130.569 100.105 119.378 90.0647 105.28 89.2827ZM103.51 131.919C90.5417 131.919 79.9901 123.137 79.9901 112.343C79.9901 103.306 87.3867 95.6842 97.4036 93.4395C93.9991 96.0597 91.111 99.2895 88.8861 102.964C87.7326 105.025 90.8424 106.713 91.9734 104.693C94.4417 100.686 97.778 97.2834 101.736 94.7372C99.0317 103.424 103.455 108.33 105.629 106.22C105.965 105.893 106.159 105.446 106.166 104.977C106.173 104.508 105.994 104.055 105.667 103.719C103.436 101.419 104.632 96.8059 105.601 94.3935C111.626 97.0138 114.568 105.401 114.608 105.519C114.763 105.958 115.084 106.318 115.503 106.522C115.921 106.725 116.403 106.755 116.844 106.606C117.285 106.457 117.649 106.139 117.858 105.723C118.067 105.307 118.103 104.826 117.959 104.383C117.836 104.02 115.722 97.9413 111.122 93.8243C120.367 96.4635 127.032 103.765 127.032 112.343C127.031 123.137 116.479 131.919 103.51 131.919Z" fill="white"/>
</svg>
