<svg width="55" height="61" viewBox="0 0 55 61" fill="none" xmlns="http://www.w3.org/2000/svg">
<path d="M27.0589 58.4911C41.0259 58.4911 52.3484 48.9346 52.3484 37.146C52.3484 25.3574 41.0259 15.8009 27.0589 15.8009C13.0918 15.8009 1.76929 25.3574 1.76929 37.146C1.76929 48.9346 13.0918 58.4911 27.0589 58.4911Z" fill="#FF4A73"/>
<path d="M30.3762 58.3054C29.2749 58.4301 28.1674 58.4921 27.059 58.4911C13.091 58.4911 1.76807 48.933 1.76807 37.1456C1.76807 25.3582 13.091 15.8 27.059 15.8C28.1674 15.799 29.2749 15.8611 30.3762 15.9858C17.9741 17.3525 8.40261 26.3091 8.40261 37.1456C8.40261 47.982 17.9741 56.9386 30.3762 58.3054Z" fill="#F973A3"/>
<path d="M52.3497 37.1456C52.3497 48.933 41.0268 58.4911 27.0589 58.4911C25.9505 58.4921 24.8429 58.4301 23.7416 58.3054C36.1438 56.9386 45.7152 47.982 45.7152 37.1456C45.7152 26.3091 36.1438 17.3525 23.7416 15.9858C24.8429 15.8611 25.9505 15.799 27.0589 15.8C41.0268 15.8 52.3497 25.3582 52.3497 37.1456Z" fill="#EA2A6A"/>
<path d="M28.828 14.0861V0.769213C28.828 0.299989 28.6416 -0.150019 28.3098 -0.481811C27.978 -0.813603 27.528 -1 27.0588 -1C26.5896 -1 26.1396 -0.813603 25.8078 -0.481811C25.476 -0.150019 25.2896 0.299989 25.2896 0.769213V14.0861C11.1916 14.8681 0 24.9088 0 37.146C0 49.8914 12.1386 60.2603 27.0588 60.2603C41.979 60.2603 54.1176 49.8914 54.1176 37.146C54.1176 24.9088 42.926 14.8681 28.828 14.0861ZM27.0588 56.7219C14.09 56.7219 3.53843 47.94 3.53843 37.146C3.53843 28.1093 10.9351 20.4875 20.9519 18.2429C17.5474 20.863 14.6593 24.0928 12.4345 27.7678C11.2809 29.8285 14.3908 31.5164 15.5217 29.4964C17.9901 25.489 21.3264 22.0868 25.2847 19.5406C22.58 28.2278 27.0035 33.133 29.177 31.0232C29.5137 30.6966 29.7069 30.2496 29.7141 29.7806C29.7213 29.3115 29.5419 28.8588 29.2155 28.522C26.984 26.222 28.1805 21.6092 29.1496 19.1969C35.1742 21.8171 38.1159 30.2045 38.1562 30.3222C38.311 30.7611 38.6326 31.1214 39.0512 31.3249C39.4698 31.5284 39.9518 31.5587 40.3926 31.4093C40.8335 31.2599 41.1976 30.9427 41.4063 30.5266C41.6149 30.1105 41.6511 29.6289 41.5071 29.1863C41.3841 28.8232 39.2699 22.7446 34.6708 18.6277C43.915 21.2669 50.58 28.5684 50.58 37.146C50.5791 47.94 40.0276 56.7219 27.0588 56.7219V56.7219Z" fill="white"/>
</svg>
